<svg xmlns="http://www.w3.org/2000/svg" xmlns:xlink="http://www.w3.org/1999/xlink" width="114.05" height="57.5"><path stroke="transparent" fill="#ffffff" stroke-width="1" d="M22.60 19.85L22.60 19.85Q17.45 19.60 12.70 20.65Q7.95 21.70 3.30 23.50L3.30 23.50Q2.10 23.95 1.48 23.40Q0.85 22.85 0.85 22.30L0.85 22.30Q1.20 21.35 2.10 20.75L2.10 20.75Q12.35 15.75 22.60 17.05L22.60 17.05Q23.10 17.20 23.43 17.77Q23.75 18.35 23.65 18.75L23.65 18.75Q23.55 19.25 23.35 19.57Q23.15 19.90 22.60 19.85ZM15.50 37.30L15.50 37.30Q15.50 37.85 15.13 38.27Q14.75 38.70 14.20 38.80L14.20 38.80Q13.20 38.95 12.90 38.45Q12.60 37.95 12.55 37.30L12.55 37.30Q12.50 33.80 12.43 30.32Q12.35 26.85 12.10 23.35L12.10 23.35Q12.10 23.15 12.05 22.88Q12 22.60 12.05 22.32Q12.10 22.05 12.28 21.85Q12.45 21.65 12.85 21.55L12.85 21.55Q14 21.35 14.50 21.92Q15 22.50 15 23.05L15 23.05Q15.40 26.65 15.50 30.20Q15.60 33.75 15.50 37.30ZM41.65 22.50L41.65 22.50Q40.75 23 39.78 23.55Q38.80 24.10 37.83 24.82Q36.85 25.55 35.98 26.52Q35.10 27.50 34.40 28.85L34.40 28.85Q33.40 30.75 33.05 32.73Q32.70 34.70 32.60 36.60L32.60 36.60Q32.60 37.50 32.18 38.42Q31.75 39.35 31.00 39.35L31.00 39.35Q30.05 39.35 29.48 38.38Q28.90 37.40 28.70 36.50L28.70 36.50Q27.85 32.95 27.30 29.47Q26.75 26 26.35 22.55L26.35 22.55Q26.35 21.85 26.78 21.65Q27.20 21.45 27.75 21.50L27.75 21.50Q28.35 21.55 28.90 21.80Q29.45 22.05 29.55 22.60L29.55 22.60Q29.75 24.45 30.05 26.47Q30.35 28.50 30.65 29.95L30.65 29.95Q30.85 28.25 31.75 26.65Q32.65 25.05 33.98 23.75Q35.30 22.45 36.98 21.55Q38.65 20.65 40.40 20.35L40.40 20.35Q41.15 20.25 41.65 20.35Q42.15 20.45 42.35 20.70L42.35 20.70Q42.55 20.95 42.43 21.50Q42.30 22.05 41.65 22.50ZM56.15 22.30L56.15 22.30Q57.65 22.85 58.67 23.95Q59.70 25.05 60.25 26.42Q60.80 27.80 60.88 29.25Q60.95 30.70 60.55 31.95L60.55 31.95Q60 33.35 59.15 34.70Q58.30 36.05 57.20 37.10Q56.10 38.15 54.70 38.80Q53.30 39.45 51.60 39.45L51.60 39.45Q49.55 39.45 48.15 38.50Q46.75 37.55 45.95 36.05Q45.15 34.55 44.93 32.65Q44.70 30.75 45 28.85L45 28.85Q45.20 27.45 45.68 26.13Q46.15 24.80 46.90 23.77Q47.65 22.75 48.63 22.10Q49.60 21.45 50.85 21.45L50.85 21.45Q51.55 21.45 52.60 21.72Q53.65 22 54.55 22.50L54.55 22.50Q55.20 21.90 56.15 22.30ZM54.25 25.95L54.25 25.95Q53.70 25.60 52.98 25.02Q52.25 24.45 51.70 24.45L51.70 24.45Q51.10 24.45 50.53 25Q49.95 25.55 49.53 26.27Q49.10 27 48.80 27.75Q48.50 28.50 48.40 28.95L48.40 28.95Q48.25 29.70 48.20 30.75Q48.15 31.80 48.35 32.83Q48.55 33.85 49.13 34.67Q49.70 35.50 50.85 35.85L50.85 35.85Q51.55 36.05 52.50 35.83Q53.45 35.60 54.38 35Q55.30 34.40 56.13 33.40Q56.95 32.40 57.40 31.10L57.40 31.10Q57.90 29.65 57.43 28.07Q56.95 26.50 55.50 25.80L55.50 25.80Q55.15 26.05 54.80 26.05Q54.45 26.05 54.25 25.95ZM76.35 22.30L76.35 22.30Q77.85 22.85 78.88 23.95Q79.90 25.05 80.45 26.42Q81 27.80 81.08 29.25Q81.15 30.70 80.75 31.95L80.75 31.95Q80.20 33.35 79.35 34.70Q78.50 36.05 77.40 37.10Q76.30 38.15 74.90 38.80Q73.50 39.45 71.80 39.45L71.80 39.45Q69.75 39.45 68.35 38.50Q66.95 37.55 66.15 36.05Q65.35 34.55 65.13 32.65Q64.90 30.75 65.20 28.85L65.20 28.85Q65.40 27.45 65.88 26.13Q66.35 24.80 67.10 23.77Q67.85 22.75 68.83 22.10Q69.80 21.45 71.05 21.45L71.05 21.45Q71.75 21.45 72.80 21.72Q73.85 22 74.75 22.50L74.75 22.50Q75.40 21.90 76.35 22.30ZM74.45 25.95L74.45 25.95Q73.90 25.60 73.18 25.02Q72.45 24.45 71.90 24.45L71.90 24.45Q71.30 24.45 70.73 25Q70.15 25.55 69.73 26.27Q69.30 27 69 27.75Q68.70 28.50 68.60 28.95L68.60 28.95Q68.45 29.70 68.40 30.75Q68.35 31.80 68.55 32.83Q68.75 33.85 69.33 34.67Q69.90 35.50 71.05 35.85L71.05 35.85Q71.75 36.05 72.70 35.83Q73.65 35.60 74.58 35Q75.50 34.40 76.33 33.40Q77.15 32.40 77.60 31.10L77.60 31.10Q78.10 29.65 77.63 28.07Q77.15 26.50 75.70 25.80L75.70 25.80Q75.35 26.05 75 26.05Q74.65 26.05 74.45 25.95ZM88.05 23.60L88.05 23.60Q88.10 24.40 88.22 25.57Q88.35 26.75 88.50 28.02Q88.65 29.30 88.83 30.55Q89 31.80 89.15 32.85L89.15 32.85Q89.70 31.75 90.50 30.15Q91.30 28.55 92.17 27.07Q93.05 25.60 93.97 24.57Q94.90 23.55 95.65 23.55L95.65 23.55Q96.45 23.55 97.13 24.32Q97.80 25.10 98.30 26.20Q98.80 27.30 99.17 28.55Q99.55 29.80 99.80 30.75L99.80 30.75Q100 30.10 100.33 29.27Q100.65 28.45 101.03 27.57Q101.40 26.70 101.88 25.85Q102.35 25 102.90 24.35L102.90 24.35Q103.55 23.65 104.30 23.32Q105.05 23 105.40 23L105.40 23Q105.85 23 106.47 23.27Q107.10 23.55 107.75 24Q108.40 24.45 108.97 25.07Q109.55 25.70 109.90 26.35L109.90 26.35Q110.60 27.70 111.03 29.30Q111.45 30.90 111.65 32.35Q111.85 33.80 111.92 34.92Q112 36.05 112.05 36.50L112.05 36.50Q112.05 37.15 111.90 37.48Q111.75 37.80 111.35 38L111.35 38Q110.80 38.25 110.40 38.17Q110 38.10 109.75 37.85Q109.50 37.60 109.35 37.27Q109.20 36.95 109.15 36.70L109.15 36.70Q109 35.55 108.83 34.35Q108.65 33.15 108.45 32.02Q108.25 30.90 107.97 29.93Q107.70 28.95 107.40 28.20L107.40 28.20Q107.30 28 107.08 27.68Q106.85 27.35 106.58 27.05Q106.30 26.75 106.05 26.55Q105.80 26.35 105.70 26.30L105.70 26.30Q105.20 26.30 104.65 27.22Q104.10 28.15 103.60 29.45Q103.10 30.75 102.67 32.17Q102.25 33.60 102.05 34.60L102.05 34.60Q102.05 35.90 101.55 36.52Q101.05 37.15 100.50 37.15L100.50 37.15Q99.95 37.15 99.33 36.73Q98.70 36.30 98.50 35.75L98.50 35.75Q98.20 34.95 97.85 33.95Q97.50 32.95 97.13 31.90Q96.75 30.85 96.38 29.85Q96 28.85 95.65 28.05L95.65 28.05Q94.95 29 94.28 30.15Q93.60 31.30 92.97 32.50Q92.35 33.70 91.78 34.88Q91.20 36.05 90.70 36.95L90.70 36.95Q90.35 37.50 89.95 37.92Q89.55 38.35 89 38.35L89 38.35Q88.60 38.35 88.15 37.98Q87.70 37.60 87.30 37.05Q86.90 36.50 86.58 35.80Q86.25 35.10 86.10 34.40L86.10 34.40Q85.70 32.25 85.42 29.68Q85.15 27.10 84.90 24.65L84.90 24.65Q84.85 23.80 85.13 23.07Q85.40 22.35 86.20 22.10L86.20 22.10Q87.05 21.95 87.50 22.35Q87.95 22.75 88.05 23.60Z"/></svg>